<svg width="48" height="34" viewBox="0 0 48 34" fill="none" xmlns="http://www.w3.org/2000/svg">
<path fill-rule="evenodd" clip-rule="evenodd" d="M20.6832 4.3019C17.5511 5.18962 14.6252 7.46948 13.1807 10.1475C12.5976 11.2289 12.2031 11.6007 11.0959 12.1123C9.51559 12.8423 7.23691 15.0247 6.46654 16.5451C4.25353 20.9141 6.14504 26.5621 10.5856 28.8435C12.4774 29.8154 14.7552 29.9679 26.1017 29.8805L36.8753 29.7979L38.3797 29.0539C41.0049 27.7555 42.3595 25.5075 42.3595 22.4491C42.3595 19.3342 40.6423 16.7488 37.8633 15.6799C37.0262 15.3577 36.6963 15.0669 36.586 14.5532C35.7832 10.8092 34.0117 8.02756 31.2847 6.22821C30.298 5.57717 28.9567 4.83474 28.3039 4.57815C26.645 3.92604 22.5344 3.77703 20.6832 4.3019ZM27.8806 15.8468C29.8541 18.3269 31.4687 20.4187 31.4687 20.4952C31.4687 20.5714 30.2265 20.6339 28.7085 20.6339H25.9482L25.8733 23.4893L25.7984 26.3448H23.9523H22.1061L22.0315 23.4981L21.9566 20.6517L19.1467 20.5762L16.3371 20.501L19.9962 15.919C22.0085 13.399 23.7985 11.337 23.9739 11.337C24.149 11.337 25.9071 13.3664 27.8806 15.8468Z" fill="#74788D"/>
</svg>
