<svg width="14" height="11" viewBox="0 0 14 11" fill="none" xmlns="http://www.w3.org/2000/svg">
<path d="M5.21662 11C5.10235 10.9997 4.98939 10.9758 4.88473 10.9299C4.78008 10.8841 4.68598 10.8172 4.60828 10.7334L0.558283 6.42505C0.406888 6.26371 0.325787 6.04883 0.332819 5.8277C0.339852 5.60656 0.434443 5.39728 0.595783 5.24588C0.757123 5.09449 0.971996 5.01338 1.19313 5.02042C1.41427 5.02745 1.62356 5.12204 1.77495 5.28338L5.20828 8.94171L12.2166 1.27505C12.2877 1.18648 12.3762 1.11339 12.4766 1.06027C12.577 1.00714 12.6872 0.9751 12.8004 0.966113C12.9137 0.957126 13.0275 0.971383 13.1351 1.00801C13.2426 1.04463 13.3415 1.10285 13.4257 1.17909C13.5099 1.25532 13.5776 1.34797 13.6247 1.45133C13.6718 1.5547 13.6973 1.6666 13.6995 1.78016C13.7018 1.89373 13.6808 2.00656 13.6379 2.11172C13.595 2.21689 13.531 2.31217 13.45 2.39171L5.83328 10.725C5.75632 10.8103 5.66255 10.8788 5.55786 10.9261C5.45317 10.9735 5.33983 10.9986 5.22495 11H5.21662Z" fill="#52C41A"/>
</svg>
