<svg width="24" height="24" viewBox="0 0 24 24" fill="none" xmlns="http://www.w3.org/2000/svg">
<circle cx="12" cy="12" r="10.4925" fill="#F3BA2F"/>
<path d="M9.45283 10.9535L12 8.40639L14.5483 10.9546L16.0304 9.47258L12 5.44226L7.97088 9.47137L9.45283 10.9535ZM5.4422 12.0001L6.92431 10.5177L8.40631 11.9997L6.9242 13.4819L5.4422 12.0001ZM9.45283 13.0467L12 15.5937L14.5483 13.0455L16.0311 14.5268L16.0304 14.5276L12 18.5579L7.96878 14.5267L9.45283 13.0467ZM15.5936 12.0007L17.0757 10.5186L18.5577 12.0006L17.0757 13.4827L15.5936 12.0007Z" fill="white"/>
<path d="M13.5032 11.9993H13.5038L12.0001 10.4954L10.4975 11.9978L10.4954 11.9998L10.4975 12.002L12.0001 13.5048L13.5039 12.0009L13.5047 12L13.5032 11.9993Z" fill="white"/>
</svg>
