<svg width="12" height="14" viewBox="0 0 12 14" fill="none" xmlns="http://www.w3.org/2000/svg">
<path d="M4.02091 7.83334H2.97925C2.80737 7.83334 2.66675 7.69272 2.66675 7.52084V6.47918C2.66675 6.3073 2.80737 6.16668 2.97925 6.16668H4.02091C4.19279 6.16668 4.33341 6.3073 4.33341 6.47918V7.52084C4.33341 7.69272 4.19279 7.83334 4.02091 7.83334ZM6.83341 7.52084V6.47918C6.83341 6.3073 6.69279 6.16668 6.52091 6.16668H5.47925C5.30737 6.16668 5.16675 6.3073 5.16675 6.47918V7.52084C5.16675 7.69272 5.30737 7.83334 5.47925 7.83334H6.52091C6.69279 7.83334 6.83341 7.69272 6.83341 7.52084ZM9.33341 7.52084V6.47918C9.33341 6.3073 9.19279 6.16668 9.02091 6.16668H7.97925C7.80737 6.16668 7.66675 6.3073 7.66675 6.47918V7.52084C7.66675 7.69272 7.80737 7.83334 7.97925 7.83334H9.02091C9.19279 7.83334 9.33341 7.69272 9.33341 7.52084ZM6.83341 10.0208V8.97918C6.83341 8.8073 6.69279 8.66668 6.52091 8.66668H5.47925C5.30737 8.66668 5.16675 8.8073 5.16675 8.97918V10.0208C5.16675 10.1927 5.30737 10.3333 5.47925 10.3333H6.52091C6.69279 10.3333 6.83341 10.1927 6.83341 10.0208ZM4.33341 10.0208V8.97918C4.33341 8.8073 4.19279 8.66668 4.02091 8.66668H2.97925C2.80737 8.66668 2.66675 8.8073 2.66675 8.97918V10.0208C2.66675 10.1927 2.80737 10.3333 2.97925 10.3333H4.02091C4.19279 10.3333 4.33341 10.1927 4.33341 10.0208ZM9.33341 10.0208V8.97918C9.33341 8.8073 9.19279 8.66668 9.02091 8.66668H7.97925C7.80737 8.66668 7.66675 8.8073 7.66675 8.97918V10.0208C7.66675 10.1927 7.80737 10.3333 7.97925 10.3333H9.02091C9.19279 10.3333 9.33341 10.1927 9.33341 10.0208ZM11.8334 3.25001V12.4167C11.8334 13.1068 11.2735 13.6667 10.5834 13.6667H1.41675C0.726644 13.6667 0.166748 13.1068 0.166748 12.4167V3.25001C0.166748 2.55991 0.726644 2.00001 1.41675 2.00001H2.66675V0.645844C2.66675 0.473969 2.80737 0.333344 2.97925 0.333344H4.02091C4.19279 0.333344 4.33341 0.473969 4.33341 0.645844V2.00001H7.66675V0.645844C7.66675 0.473969 7.80737 0.333344 7.97925 0.333344H9.02091C9.19279 0.333344 9.33341 0.473969 9.33341 0.645844V2.00001H10.5834C11.2735 2.00001 11.8334 2.55991 11.8334 3.25001ZM10.5834 12.2604V4.50001H1.41675V12.2604C1.41675 12.3464 1.48706 12.4167 1.573 12.4167H10.4272C10.5131 12.4167 10.5834 12.3464 10.5834 12.2604Z" fill="#556EE6"/>
</svg>
