<svg width="12" height="12" viewBox="0 0 12 12" fill="none" xmlns="http://www.w3.org/2000/svg">
<path d="M6 4.05564C5.81599 4.05852 5.63335 4.08775 5.45764 4.14245C5.53892 4.28538 5.58219 4.44677 5.58333 4.6112C5.58333 4.73887 5.55818 4.86529 5.50933 4.98325C5.46047 5.10121 5.38885 5.20838 5.29857 5.29866C5.2083 5.38894 5.10112 5.46056 4.98316 5.50941C4.86521 5.55827 4.73878 5.58342 4.61111 5.58342C4.44668 5.58228 4.28529 5.539 4.14236 5.45773C4.02958 5.84884 4.04273 6.26552 4.17993 6.64874C4.31712 7.03197 4.57142 7.36231 4.9068 7.59298C5.24217 7.82365 5.64162 7.94295 6.04857 7.93399C6.45552 7.92502 6.84933 7.78824 7.17422 7.54303C7.49911 7.29781 7.73861 6.95659 7.8588 6.56769C7.97898 6.17879 7.97376 5.76194 7.84387 5.37617C7.71399 4.99041 7.46601 4.65529 7.13508 4.41829C6.80415 4.18128 6.40704 4.05441 6 4.05564V4.05564ZM10.9396 5.74661C9.9981 3.90963 8.13421 2.66675 6 2.66675C3.86579 2.66675 2.00138 3.9105 1.06041 5.74679C1.02069 5.82535 1 5.91215 1 6.00017C1 6.0882 1.02069 6.175 1.06041 6.25356C2.0019 8.09054 3.86579 9.33343 6 9.33343C8.13421 9.33343 9.99862 8.08967 10.9396 6.25339C10.9793 6.17483 11 6.08803 11 6C11 5.91197 10.9793 5.82518 10.9396 5.74661V5.74661ZM6 8.50009C4.28732 8.50009 2.71718 7.54523 1.86926 6.00009C2.71718 4.45495 4.28715 3.50008 6 3.50008C7.71285 3.50008 9.28282 4.45495 10.1307 6.00009C9.28299 7.54523 7.71285 8.50009 6 8.50009Z" fill="black"/>
</svg>
