<svg width="20" height="20" viewBox="0 0 20 20" fill="none" xmlns="http://www.w3.org/2000/svg">
<path d="M17.5667 13.055C17.6345 12.6878 17.6345 12.3128 17.5667 11.9455L18.2387 11.5575C18.3168 11.5132 18.3507 11.422 18.3246 11.3361C18.1501 10.7735 17.8506 10.2631 17.46 9.84114C17.4001 9.77603 17.3037 9.7604 17.2256 9.80468L16.5536 10.1927C16.2697 9.95053 15.9442 9.76301 15.5926 9.63799V8.86187C15.5926 8.77332 15.5301 8.69519 15.4441 8.67696C14.8633 8.54673 14.2721 8.55194 13.72 8.67696C13.634 8.69519 13.5715 8.77332 13.5715 8.86187V9.63799C13.2199 9.76301 12.8944 9.95053 12.6105 10.1927L11.9385 9.80468C11.863 9.7604 11.764 9.77603 11.7041 9.84114C11.3135 10.2631 11.014 10.7735 10.8395 11.3361C10.8134 11.422 10.8499 11.5132 10.9254 11.5575L11.5974 11.9455C11.5296 12.3128 11.5296 12.6878 11.5974 13.055L10.9254 13.4431C10.8473 13.4874 10.8134 13.5785 10.8395 13.6645C11.014 14.227 11.3135 14.7349 11.7041 15.1594C11.764 15.2245 11.8604 15.2401 11.9385 15.1959L12.6105 14.8078C12.8944 15.05 13.2199 15.2375 13.5715 15.3626V16.1387C13.5715 16.2272 13.634 16.3054 13.72 16.3236C14.3008 16.4538 14.892 16.4486 15.4441 16.3236C15.5301 16.3054 15.5926 16.2272 15.5926 16.1387V15.3626C15.9442 15.2375 16.2697 15.05 16.5536 14.8078L17.2256 15.1959C17.3011 15.2401 17.4001 15.2245 17.46 15.1594C17.8506 14.7375 18.1501 14.227 18.3246 13.6645C18.3507 13.5785 18.3142 13.4874 18.2387 13.4431L17.5667 13.055ZM14.5847 13.7634C13.8867 13.7634 13.3215 13.1957 13.3215 12.5003C13.3215 11.8049 13.8893 11.2371 14.5847 11.2371C15.28 11.2371 15.8478 11.8049 15.8478 12.5003C15.8478 13.1957 15.2826 13.7634 14.5847 13.7634ZM7.50058 10C9.34192 10 10.8343 8.50767 10.8343 6.66633C10.8343 4.82499 9.34192 3.33264 7.50058 3.33264C5.65924 3.33264 4.16689 4.82499 4.16689 6.66633C4.16689 8.50767 5.65924 10 7.50058 10ZM12.7407 15.8991C12.6808 15.8678 12.6209 15.8314 12.5636 15.7975L12.3579 15.9173C12.2016 16.0059 12.0245 16.0553 11.8474 16.0553C11.5635 16.0553 11.29 15.9355 11.0947 15.7272C10.6181 15.2115 10.2535 14.5838 10.0477 13.9145C9.90447 13.4535 10.0972 12.9665 10.5139 12.7243L10.7197 12.6045C10.7171 12.5367 10.7171 12.469 10.7197 12.4013L10.5139 12.2815C10.0972 12.0419 9.90447 11.5523 10.0477 11.0913C10.0712 11.0157 10.105 10.9402 10.1311 10.8647C10.0321 10.8569 9.93573 10.8334 9.83416 10.8334H9.39921C8.82103 11.0991 8.17773 11.2501 7.50058 11.2501C6.82342 11.2501 6.18273 11.0991 5.60194 10.8334H5.167C3.2345 10.8334 1.66663 12.4013 1.66663 14.3338V15.4172C1.66663 16.1074 2.22658 16.6674 2.91676 16.6674H12.0844C12.3474 16.6674 12.5923 16.584 12.7928 16.446C12.7615 16.347 12.7407 16.2455 12.7407 16.1387V15.8991Z" fill="white"/>
</svg>
