<svg width="6" height="13" viewBox="0 0 6 13" fill="none" xmlns="http://www.w3.org/2000/svg">
<path d="M3.66714 0.5C3.66714 0.367392 3.61446 0.240215 3.52069 0.146447C3.42692 0.0526785 3.29974 0 3.16714 0C3.03453 0 2.90735 0.0526785 2.81358 0.146447C2.71981 0.240215 2.66714 0.367392 2.66714 0.5V10.293L1.52114 9.146C1.47465 9.09951 1.41946 9.06264 1.35872 9.03748C1.29798 9.01232 1.23288 8.99937 1.16714 8.99937C1.10139 8.99937 1.03629 9.01232 0.975552 9.03748C0.914813 9.06264 0.859623 9.09951 0.813136 9.146C0.766648 9.19249 0.729771 9.24768 0.704612 9.30842C0.679453 9.36916 0.666504 9.43426 0.666504 9.5C0.666504 9.56574 0.679453 9.63084 0.704612 9.69158C0.729771 9.75232 0.766648 9.80751 0.813136 9.854L2.81314 11.853L2.82014 11.86C2.91401 11.9515 3.04026 12.0023 3.17137 12.0011C3.30248 12 3.42784 11.9471 3.52014 11.854L5.52014 9.854C5.61402 9.76025 5.66682 9.63304 5.66691 9.50035C5.66701 9.36767 5.61439 9.24039 5.52064 9.1465C5.42688 9.05261 5.29967 8.99981 5.16699 8.99972C5.03431 8.99963 4.90702 9.05225 4.81314 9.146L3.66714 10.293V0.5Z" fill="#C2BFBF"/>
</svg>
