<svg width="6" height="13" viewBox="0 0 6 13" fill="none" xmlns="http://www.w3.org/2000/svg">
<path d="M2.16685 11.5012C2.16685 11.6338 2.21953 11.761 2.3133 11.8548C2.40706 11.9485 2.53424 12.0012 2.66685 12.0012C2.79946 12.0012 2.92663 11.9485 3.0204 11.8548C3.11417 11.761 3.16685 11.6338 3.16685 11.5012L3.16685 1.70822L4.31285 2.85522C4.35934 2.90171 4.41453 2.93859 4.47527 2.96374C4.536 2.9889 4.60111 3.00185 4.66685 3.00185C4.73259 3.00185 4.79769 2.9889 4.85843 2.96374C4.91917 2.93859 4.97436 2.90171 5.02085 2.85522C5.06734 2.80873 5.10421 2.75354 5.12937 2.6928C5.15453 2.63206 5.16748 2.56696 5.16748 2.50122C5.16748 2.43548 5.15453 2.37038 5.12937 2.30964C5.10421 2.2489 5.06734 2.19371 5.02085 2.14722L3.02085 0.148221L3.01385 0.141221C2.91997 0.0496817 2.79373 -0.0010519 2.66261 7.15256e-05C2.5315 0.00119495 2.40614 0.0540857 2.31385 0.147221L0.313848 2.14722C0.219962 2.24097 0.167165 2.36819 0.167071 2.50087C0.166977 2.63355 0.219595 2.76083 0.313349 2.85472C0.407103 2.94861 0.534313 3.00141 0.666995 3.0015C0.799677 3.00159 0.926962 2.94897 1.02085 2.85522L2.16685 1.70822L2.16685 11.5012Z" fill="#C2BFBF"/>
</svg>
